<?xml version="1.0" encoding="UTF-8" standalone="no"?>
<!-- Created with Inkscape (http://www.inkscape.org/) -->

<svg
   xmlns:dc="http://purl.org/dc/elements/1.1/"
   xmlns:cc="http://creativecommons.org/ns#"
   xmlns:rdf="http://www.w3.org/1999/02/22-rdf-syntax-ns#"
   xmlns:svg="http://www.w3.org/2000/svg"
   xmlns="http://www.w3.org/2000/svg"
   xmlns:sodipodi="http://sodipodi.sourceforge.net/DTD/sodipodi-0.dtd"
   xmlns:inkscape="http://www.inkscape.org/namespaces/inkscape"
   version="1.1"
   id="svg1446"
   xml:space="preserve"
   width="68.957726"
   height="45.10284"
   viewBox="0 0 68.957727 45.102841"
   sodipodi:docname="srakrn-logo.svg"
   inkscape:version="0.92.3 (2405546, 2018-03-11)"><metadata
     id="metadata1452"><rdf:RDF><cc:Work
         rdf:about=""><dc:format>image/svg+xml</dc:format><dc:type
           rdf:resource="http://purl.org/dc/dcmitype/StillImage" /><dc:title></dc:title></cc:Work></rdf:RDF></metadata><defs
     id="defs1450"><clipPath
       clipPathUnits="userSpaceOnUse"
       id="clipPath1462"><path
         d="M 0,283.46 H 283.46 V 0 H 0 Z"
         id="path1460"
         inkscape:connector-curvature="0" /></clipPath></defs><sodipodi:namedview
     pagecolor="#ffffff"
     bordercolor="#666666"
     borderopacity="1"
     objecttolerance="10"
     gridtolerance="10"
     guidetolerance="10"
     inkscape:pageopacity="0"
     inkscape:pageshadow="2"
     inkscape:window-width="781"
     inkscape:window-height="480"
     id="namedview1448"
     showgrid="false"
     fit-margin-top="0"
     fit-margin-left="0"
     fit-margin-right="0"
     fit-margin-bottom="0"
     inkscape:zoom="0.62442675"
     inkscape:cx="105.29493"
     inkscape:cy="-24.781945"
     inkscape:window-x="67"
     inkscape:window-y="27"
     inkscape:window-maximized="0"
     inkscape:current-layer="g1454" /><g
     id="g1454"
     inkscape:groupmode="layer"
     inkscape:label="Untitled-2"
     transform="matrix(1.3333333,0,0,-1.3333333,-83.678398,258.85813)"><g
       id="g1456"
       style="fill:#ffffff"
       transform="matrix(0.32367207,0,0,0.32367207,42.445529,131.30474)"><g
         id="g1458"
         clip-path="url(#clipPath1462)"
         style="fill:#ffffff"><g
           id="g1464"
           transform="translate(62.7588,155.3726)"
           style="fill:#ffffff"><path
             d="m 0,0 2.701,6.36 c 4.356,-3.369 9.438,-5.053 15.247,-5.053 2.845,0 5.023,0.479 6.534,1.438 1.51,0.958 2.266,2.308 2.266,4.051 0,1.51 -0.509,2.701 -1.525,3.572 -1.017,0.871 -2.774,1.597 -5.271,2.178 l -7.057,1.568 c -3.777,0.872 -6.622,2.294 -8.539,4.27 -1.917,1.973 -2.875,4.471 -2.875,7.492 0,3.834 1.553,6.94 4.662,9.323 3.106,2.381 7.187,3.572 12.241,3.572 3.019,0 5.894,-0.479 8.625,-1.438 2.73,-0.958 5.082,-2.309 7.057,-4.051 l -2.701,-6.186 c -4.182,3.311 -8.51,4.967 -12.981,4.967 -2.673,0 -4.779,-0.523 -6.317,-1.569 -1.54,-1.045 -2.309,-2.47 -2.309,-4.269 0,-1.453 0.479,-2.629 1.438,-3.529 0.958,-0.901 2.483,-1.583 4.574,-2.047 l 7.231,-1.655 c 4.124,-0.931 7.145,-2.368 9.062,-4.313 1.916,-1.947 2.875,-4.487 2.875,-7.624 0,-3.833 -1.555,-6.869 -4.662,-9.104 C 27.168,-4.284 22.971,-5.402 17.687,-5.402 10.31,-5.402 4.414,-3.602 0,0"
             style="fill:#ffffff;fill-opacity:1;fill-rule:nonzero;stroke:none"
             id="path1466"
             inkscape:connector-curvature="0" /></g><g
           id="g1468"
           transform="translate(162.082,159.7725)"
           style="fill:#ffffff"><path
             d="m 0,0 c 2.033,2.178 3.049,4.979 3.049,8.408 v 2.265 H 1.48 c -4.529,0 -8.015,-0.204 -10.455,-0.61 -2.439,-0.407 -4.181,-1.089 -5.226,-2.047 -1.045,-0.959 -1.569,-2.339 -1.569,-4.139 0,-2.034 0.741,-3.733 2.221,-5.097 1.483,-1.365 3.383,-2.047 5.707,-2.047 3.194,0 5.809,1.089 7.842,3.267 m 7.449,30.102 c 2.758,-2.847 4.139,-7.174 4.139,-12.982 V -9.192 H 3.137 v 7.057 c -1.104,-2.498 -2.744,-4.4 -4.922,-5.706 -2.18,-1.307 -4.721,-1.961 -7.625,-1.961 -2.787,0 -5.344,0.567 -7.666,1.699 -2.324,1.133 -4.139,2.715 -5.445,4.749 -1.308,2.032 -1.961,4.297 -1.961,6.795 0,3.079 0.798,5.503 2.396,7.275 1.597,1.771 4.238,3.035 7.928,3.79 3.687,0.755 8.756,1.133 15.203,1.133 h 2.004 v 2.527 c 0,3.252 -0.684,5.605 -2.047,7.057 -1.365,1.451 -3.588,2.178 -6.666,2.178 -4.82,0 -9.641,-1.481 -14.461,-4.443 l -2.614,6.186 c 2.265,1.568 5.009,2.831 8.233,3.79 3.223,0.958 6.317,1.437 9.279,1.437 5.692,0 9.916,-1.424 12.676,-4.269"
             style="fill:#ffffff;fill-opacity:1;fill-rule:nonzero;stroke:none"
             id="path1470"
             inkscape:connector-curvature="0" /></g><g
           id="g1472"
           transform="translate(107.4536,193.0982)"
           style="fill:#ffffff"><path
             d="m 0,0 h 8.539 v -7.406 c 2.265,4.995 6.882,7.755 13.853,8.277 l 2.875,0.174 0.609,-7.405 -5.314,-0.523 C 16.38,-7.29 13.374,-8.568 11.544,-10.716 9.715,-12.866 8.8,-15.596 8.8,-18.906 l -0.001,-61.21 18.645,19.081 h 10.89 L 18.209,-81.422 40.077,-103.465 H 28.926 L 8.799,-83.426 v -20.039 H 0 Z"
             style="fill:#ffffff;fill-opacity:1;fill-rule:nonzero;stroke:none"
             id="path1474"
             inkscape:connector-curvature="0" /></g><g
           id="g1476"
           transform="translate(178.373,125.7901)"
           style="fill:#ffffff"><path
             d="m 0,0 -5.315,-0.522 c -4.182,-0.408 -7.188,-1.686 -9.018,-3.834 -1.829,-2.15 -2.744,-4.879 -2.744,-8.19 v -23.611 h -8.8 V 6.36 h 8.538 v -7.405 c 2.266,4.994 6.884,7.754 13.854,8.276 l 2.875,0.175 z"
             style="fill:#ffffff;fill-opacity:1;fill-rule:nonzero;stroke:none"
             id="path1478"
             inkscape:connector-curvature="0" /></g><g
           id="g1480"
           transform="translate(222.5449,116.0323)"
           style="fill:#ffffff"><path
             d="m 0,0 v -26.399 h -8.8 v 25.963 c 0,3.601 -0.712,6.244 -2.134,7.928 -1.424,1.685 -3.646,2.528 -6.666,2.528 -3.543,0 -6.389,-1.105 -8.538,-3.311 -2.149,-2.209 -3.223,-5.171 -3.223,-8.888 v -24.22 h -8.8 v 42.517 h 8.626 V 9.322 c 1.393,2.556 3.339,4.501 5.837,5.838 2.497,1.335 5.315,2.004 8.451,2.004 C -5.083,17.164 0,11.442 0,0"
             style="fill:#ffffff;fill-opacity:1;fill-rule:nonzero;stroke:none"
             id="path1482"
             inkscape:connector-curvature="0" /></g></g></g></g></svg>